HIERARCHY
ROOT Hips
{
	OFFSET 0.000000 88.474243 0.000000
	CHANNELS 6 Xposition Yposition Zposition Zrotation Yrotation Xrotation 
	JOINT Hips_Spine
	{
		OFFSET 0.000000 0.000000 0.000000
		CHANNELS 3 Zrotation Yrotation Xrotation
		JOINT Spine
		{
			OFFSET 0.005100 8.711998 -0.691000
			CHANNELS 3 Zrotation Yrotation Xrotation
			JOINT Spine1
			{
				OFFSET -0.009200 8.660301 -1.275000
				CHANNELS 3 Zrotation Yrotation Xrotation
				JOINT Spine2
				{
					OFFSET 0.006300 9.852501 -1.857000
					CHANNELS 3 Zrotation Yrotation Xrotation
					JOINT Spine2_Neck
					{
						OFFSET 0.000000 0.000000 0.000000
						CHANNELS 3 Zrotation Yrotation Xrotation
						JOINT Neck
						{
							OFFSET 0.016300 11.420799 -0.263300
							CHANNELS 3 Zrotation Yrotation Xrotation
							End Site #name: Head
							{
								OFFSET -0.019200 9.262405 2.362500
							}
						}
					}
					JOINT Spine2_LeftShoulder
					{
						OFFSET 0.000000 0.000000 0.000000
						CHANNELS 3 Zrotation Yrotation Xrotation
						JOINT LeftShoulder
						{
							OFFSET 5.616900 6.732201 -0.345700
							CHANNELS 3 Zrotation Yrotation Xrotation
							JOINT LeftArm
							{
								OFFSET 10.664888 -0.183372 -2.440700
								CHANNELS 3 Zrotation Yrotation Xrotation
								JOINT LeftForeArm
								{
									OFFSET 27.459126 0.000000 0.000000
									CHANNELS 3 Zrotation Yrotation Xrotation
									End Site #name: LeftHand
									{
										OFFSET 21.306858 0.000000 0.000000
									}
								}
							}
						}
					}
					JOINT Spine2_RightShoulder
					{
						OFFSET 0.000000 0.000000 0.000000
						CHANNELS 3 Zrotation Yrotation Xrotation
						JOINT RightShoulder
						{
							OFFSET -5.580300 6.737503 -0.344400
							CHANNELS 3 Zrotation Yrotation Xrotation
							JOINT RightArm
							{
								OFFSET -10.679335 -0.188484 -2.383900
								CHANNELS 3 Zrotation Yrotation Xrotation
								JOINT RightForeArm
								{
									OFFSET -27.503529 0.000000 0.000000
									CHANNELS 3 Zrotation Yrotation Xrotation
									End Site #name: RightHand
									{
										OFFSET -21.306808 0.000000 0.000000
									}
								}
							}
						}
					}
				}
			}
		}
	}
	JOINT Hips_LeftUpLeg
	{
		OFFSET 0.000000 0.000000 0.000000
		CHANNELS 3 Zrotation Yrotation Xrotation
		JOINT LeftUpLeg
		{
			OFFSET 6.857700 -6.739601 0.312100
			CHANNELS 3 Zrotation Yrotation Xrotation
			JOINT LeftLeg
			{
				OFFSET -0.367590 -34.731552 -4.572400
				CHANNELS 3 Zrotation Yrotation Xrotation
				End Site #name: LeftFoot
				{
					OFFSET 0.367590 -34.656704 -6.067400
				}
			}
		}
	}
	JOINT Hips_RightUpLeg
	{
		OFFSET 0.000000 0.000000 0.000000
		CHANNELS 3 Zrotation Yrotation Xrotation
		JOINT RightUpLeg
		{
			OFFSET -6.876100 -6.733299 0.301000
			CHANNELS 3 Zrotation Yrotation Xrotation
			JOINT RightLeg
			{
				OFFSET 0.347353 -34.795158 -4.515900
				CHANNELS 3 Zrotation Yrotation Xrotation
				End Site #name: RightFoot
				{
					OFFSET -0.347353 -34.589367 -6.070300
				}
			}
		}
	}
}
MOTION
Frames: 15
Frame Time: 0.041667
0.151395 0.055372 0.010670 0.036470 19.404915 -7.114387 -0.000000 0.000000 0.000000 -0.281502 -0.873667 0.748147 -0.626712 -1.121417 0.280612 0.000000 0.000000 0.000000 -0.616034 -0.784190 -0.693541 3.167038 -0.534792 -5.480235 -0.163077 -1.504236 -1.524865 -18.078273 -9.673775 2.161906 -42.946582 -3.151025 19.604715 0.812691 -26.806371 4.560000 -0.894272 -0.750554 0.591854 13.135966 12.420789 4.266916 57.482335 -2.357706 -0.126649 0.079261 50.999350 0.730419 0.000000 0.000000 0.000000 -7.618876 15.658966 -4.263767 -0.581587 0.219087 22.368150 0.000000 0.000000 0.000000 -4.330126 10.128003 -5.948801 5.156318 -1.974939 -3.799853 
0.560058 0.017647 0.158879 1.446474 22.349819 -7.742878 -0.000000 0.000000 0.000000 -2.284586 -1.790929 -0.317725 -0.387463 -0.962897 0.030986 0.000000 0.000000 0.000000 -0.726069 -0.838300 -1.465701 4.608191 -2.267041 -3.993044 -0.823183 -1.045267 -2.115874 -24.752675 -5.774672 0.466276 -37.660785 -1.141095 14.923589 -0.334758 -18.859579 2.609143 -0.806453 -0.918243 -0.052212 14.337964 9.674568 1.818546 59.892413 0.821870 0.666472 0.018647 50.198650 -0.348230 0.000000 0.000000 -0.000000 -9.609364 14.162925 -2.379899 -1.033956 2.598835 21.876030 0.000000 0.000000 0.000000 -7.809013 11.020931 -5.204574 5.285284 -3.205545 -3.056959 
0.818032 -0.000224 0.188368 2.555630 23.907844 -7.673375 -0.000000 0.000000 0.000000 -3.090848 -2.241347 -0.412471 -0.395423 -0.613268 -0.470270 0.000000 0.000000 0.000000 -0.155054 -1.118571 -1.777827 4.111289 -2.936513 -4.589266 -0.836666 -1.098290 -2.326786 -29.746151 -4.487589 0.826750 -36.123618 5.113023 9.778962 -0.560037 -18.325741 3.101113 -0.509886 -0.929890 -0.211223 13.226458 8.691570 1.846342 59.693691 2.716948 2.368546 0.249817 45.895998 -0.371614 0.000000 0.000000 -0.000000 -11.325096 13.312712 -1.284076 -1.751379 3.070534 20.946842 0.000000 0.000000 0.000000 -9.738463 10.981961 -7.091868 4.843015 -5.183930 0.767875 
1.098606 -0.026681 0.166113 3.068952 24.285728 -7.070174 -0.000000 0.000000 -0.000000 -3.327632 -1.851707 0.130124 -0.344897 -0.642791 -0.657172 0.000000 0.000000 0.000000 0.115489 -1.172064 -1.765762 3.737921 -3.885196 -3.738297 -0.710615 -1.117209 -2.261916 -33.236317 -3.886370 1.426363 -34.106993 4.597479 9.000191 0.245935 -15.960158 5.653212 -0.346487 -0.884403 -0.122993 12.473847 8.575967 1.956871 59.489120 5.555413 1.983817 0.353240 48.035926 -0.410213 0.000000 0.000000 -0.000000 -12.556566 12.857794 -1.491739 -1.870154 3.467927 20.477343 0.000000 0.000000 0.000000 -10.985294 9.753513 -9.522068 3.940730 -5.887878 5.488919 
1.434439 -0.037113 0.123812 3.277496 25.248829 -6.361667 -0.000000 0.000000 -0.000000 -3.713783 -1.385212 -0.022418 -0.395362 -0.620143 -0.571450 0.000000 0.000000 0.000000 0.091778 -1.149311 -1.758281 3.665863 -4.608015 -3.103933 -0.635166 -1.204935 -2.076378 -36.257884 -2.978510 2.136814 -30.502571 2.512191 10.029647 1.119222 -11.652999 7.864032 -0.292801 -0.863826 0.016947 11.507735 8.525712 1.902328 60.280660 7.183908 0.359132 0.460209 50.629714 -0.495677 0.000000 0.000000 -0.000000 -13.395303 12.594608 -1.999516 -1.744055 3.609292 20.408259 0.000000 0.000000 0.000000 -12.037840 8.316135 -11.156521 3.457158 -5.527469 8.804439 
1.808821 -0.031804 0.081388 3.280669 26.194211 -5.960612 -0.000000 0.000000 -0.000000 -3.950945 -1.119267 -0.481070 -0.524071 -0.567959 -0.489477 0.000000 0.000000 0.000000 -0.053917 -1.132238 -1.734828 3.675110 -5.073180 -2.617084 -0.673653 -1.239244 -1.914925 -38.166905 -1.945049 2.503598 -28.258257 1.072758 10.831586 1.735405 -7.505712 9.460152 -0.354145 -0.819429 0.079700 10.720749 8.175392 1.780277 61.268101 7.220563 -1.474359 0.524780 49.835170 -0.514595 0.000000 0.000000 -0.000000 -13.975481 12.509350 -2.405440 -1.555283 3.646230 20.385152 0.000000 0.000000 0.000000 -12.737310 7.479821 -11.681247 3.282002 -4.885663 10.298709 
2.197170 -0.017158 0.037615 3.152265 26.955037 -5.827612 -0.000000 0.000000 -0.000000 -4.008788 -0.822542 -0.965801 -0.662458 -0.449697 -0.494167 0.000000 0.000000 0.000000 -0.250194 -1.094517 -1.695747 3.555526 -5.324531 -2.272724 -0.788575 -1.189076 -1.827592 -39.366781 -0.990327 2.704868 -26.913009 0.254622 11.143872 2.209131 -3.251639 10.370242 -0.515049 -0.741158 0.089106 10.170615 8.102005 1.658111 62.492008 6.203321 -3.178737 0.618534 47.270823 -0.501035 0.000000 0.000000 -0.000000 -14.381530 12.451609 -2.735442 -1.391810 3.656018 20.498186 0.000000 0.000000 0.000000 -13.186578 6.936514 -11.614724 3.385934 -3.694212 10.876092 
2.573553 0.001094 -0.005719 2.987087 27.487806 -5.788869 -0.000000 0.000000 -0.000000 -4.128198 -0.520562 -1.377160 -0.818426 -0.293548 -0.515538 0.000000 0.000000 0.000000 -0.427943 -1.031467 -1.686220 3.319975 -5.431653 -2.089224 -0.940762 -1.088352 -1.796002 -40.356185 -0.433751 2.823046 -26.136148 -0.353608 10.976252 2.441829 -0.037109 10.552032 -0.753952 -0.605185 0.064131 9.804548 8.145406 1.562615 63.664567 5.044907 -4.385109 0.745303 43.995242 -0.436750 0.000000 0.000000 -0.000000 -14.703346 12.363421 -3.063569 -1.217761 3.606099 20.678470 0.000000 0.000000 0.000000 -13.481226 6.372287 -11.404962 3.464535 -2.335436 11.239858 
2.910554 0.024734 -0.044182 2.741858 28.073679 -5.781319 -0.000000 0.000000 -0.000000 -4.358950 -0.242893 -1.645788 -0.966373 -0.126118 -0.583178 0.000000 0.000000 0.000000 -0.611156 -0.943906 -1.709129 3.003789 -5.406130 -1.927386 -1.092080 -0.978220 -1.827476 -41.026993 -0.030029 2.848338 -25.760929 -0.658066 10.625321 2.416586 1.617537 10.276606 -1.050102 -0.438157 0.049851 9.536677 8.089507 1.455943 64.536829 3.920304 -5.176950 0.847602 40.518173 -0.386222 0.000000 0.000000 -0.000000 -14.876544 12.272880 -3.459516 -1.017899 3.523607 21.049160 0.000000 0.000000 0.000000 -13.629730 5.538100 -11.184047 3.349814 -1.239968 11.648017 
3.202708 0.055189 -0.080171 2.456295 28.498539 -5.790430 -0.000000 0.000000 -0.000000 -4.744726 -0.031673 -1.710815 -1.125118 0.042028 -0.714594 0.000000 0.000000 0.000000 -0.826920 -0.839629 -1.778273 2.809962 -5.172031 -1.834319 -1.238830 -0.878007 -1.916546 -41.349677 0.275677 2.820378 -25.867835 -0.709658 10.314186 2.269845 2.089117 9.861994 -1.330244 -0.269699 0.008635 9.338608 7.893840 1.364081 65.206201 3.161766 -4.874655 0.896901 37.736864 -0.395574 0.000000 0.000000 -0.000000 -14.873362 12.205664 -3.887784 -0.804668 3.457755 21.510423 0.000000 0.000000 0.000000 -13.634685 4.334164 -10.894578 3.302133 -0.154548 11.960842 
3.444963 0.092642 -0.116283 2.153564 28.756658 -5.806277 -0.000000 0.000000 -0.000000 -5.161627 0.127893 -1.650710 -1.247986 0.178638 -0.871357 0.000000 0.000000 0.000000 -1.018048 -0.744661 -1.885833 2.780518 -4.984681 -1.859320 -1.378270 -0.783493 -2.027658 -41.327244 0.475606 2.797287 -26.281483 -0.679843 10.075706 2.085514 1.767986 9.489129 -1.607488 -0.113171 -0.068804 9.256287 7.800842 1.316826 65.637692 2.967215 -3.949552 0.924970 35.824865 -0.412772 0.000000 0.000000 -0.000000 -14.739914 12.138987 -4.307201 -0.596726 3.426865 21.941200 0.000000 0.000000 0.000000 -13.521995 2.919956 -10.569865 3.232748 0.843416 12.061214 
3.631768 0.135790 -0.155750 1.876209 28.833484 -5.792999 -0.000000 0.000000 -0.000000 -5.574642 0.221312 -1.519006 -1.310135 0.280837 -1.032433 0.000000 0.000000 0.000000 -1.187082 -0.663253 -2.009253 2.933029 -4.721188 -2.083216 -1.504153 -0.689004 -2.164170 -41.038877 0.580210 2.813382 -26.923116 -0.689466 9.995560 1.937527 1.130459 9.178042 -1.829876 0.011353 -0.136217 9.282537 7.743461 1.304633 65.580001 3.377905 -3.362356 0.938032 34.876124 -0.419630 0.000000 0.000000 -0.000000 -14.550194 12.072022 -4.649179 -0.415058 3.444611 22.210626 0.000000 0.000000 0.000000 -13.295527 1.634948 -10.243272 3.097302 1.651568 11.834887 
3.757119 0.183392 -0.201937 1.657959 28.683588 -5.755066 -0.000000 0.000000 -0.000000 -5.898205 0.267931 -1.371295 -1.348836 0.359977 -1.181833 0.000000 0.000000 0.000000 -1.309368 -0.598052 -2.119865 3.253437 -4.481197 -2.514561 -1.601252 -0.580120 -2.304673 -40.597750 0.638097 2.878095 -27.641549 -0.856972 10.128585 1.831949 0.425380 8.980959 -1.992548 0.108940 -0.205912 9.343771 7.687495 1.301006 65.146708 3.846477 -3.126030 0.932621 34.762943 -0.416321 0.000000 0.000000 -0.000000 -14.353355 12.017509 -4.902580 -0.237982 3.567766 22.288962 0.000000 0.000000 0.000000 -13.031922 0.564954 -9.964855 2.907199 2.188108 11.413863 
3.825073 0.234062 -0.256277 1.486434 28.255197 -5.708219 -0.000000 0.000000 -0.000000 -6.156722 0.336437 -1.229044 -1.357698 0.411202 -1.339814 0.000000 0.000000 0.000000 -1.376248 -0.555350 -2.209948 3.618448 -4.324125 -2.915412 -1.648711 -0.520389 -2.417309 -40.030624 0.639871 3.012913 -28.364859 -1.089613 10.455426 1.743670 -0.335254 8.828498 -2.084278 0.169404 -0.280162 9.435998 7.626037 1.298013 64.649066 4.394787 -3.204022 0.922494 35.216365 -0.414215 0.000000 0.000000 -0.000000 -14.166428 11.982544 -5.082839 -0.038433 3.839390 22.231258 0.000000 0.000000 0.000000 -12.748626 -0.208473 -9.755417 2.645425 2.327972 10.782297 
3.839276 0.285359 -0.319230 1.364785 27.538911 -5.657653 -0.000000 0.000000 -0.000000 -6.227232 0.356512 -1.134080 -1.333263 0.429243 -1.485211 0.000000 0.000000 0.000000 -1.368546 -0.543108 -2.292233 3.940100 -4.277508 -3.129108 -1.651151 -0.498882 -2.511963 -39.360323 0.593554 3.205243 -29.086597 -1.225700 10.921301 1.653236 -1.051432 8.680126 -2.085777 0.187830 -0.356739 9.502992 7.545678 1.284785 64.260127 4.905601 -3.424764 0.915503 36.109637 -0.407763 0.000000 0.000000 -0.000000 -13.978185 11.968686 -5.228334 0.114366 4.120391 22.136685 0.000000 0.000000 0.000000 -12.493412 -0.698139 -9.644787 2.368374 2.144960 10.101048 
